# xmcd
#
# Track frame offsets: 
#        150
#        17594
#        31161
#        47521
#
# Disc length: 958 seconds
#
# Revision: 0
# Processed by: cddbd v1.5.2PL0 Copyright (c) Steve Scherf et al.
# Submitted via: ExactAudioCopyFreeDBPlugin 1.0
#
DISCID=2103bc04
DTITLE=Lindi Ortega - Til The Goin' Gets Gone
DYEAR=2017
DGENRE=Country
TTITLE0=Til The Goin' Gets Gone
TTITLE1=What A Girls Gotta Do
TTITLE2=Waiting 'Round To Die
TTITLE3=Final Bow
EXTD=
EXTT0=
EXTT1=
EXTT2=
EXTT3=
PLAYORDER=
